# xmcd
#
# Track frame offsets: 
#        150
#        17512
#        33040
#        54852
#        72260
#        87071
#        101492
#        112679
#        127344
#        137383
#        147109
#        166240
#
# Disc length: 2434 seconds
#
# Revision: 0
# Processed by: cddbd v1.5.2PL0 Copyright (c) Steve Scherf et al.
# Submitted via: ExactAudioCopyFreeDBPlugin 1.0
#
DISCID=8b09800c
DTITLE=Oscar Benton - I Am Back
DYEAR=2018
DGENRE=Blues
TTITLE0=Benjamin Wilder
TTITLE1=I Am Back
TTITLE2=Bensonhurst Blues Revisited
TTITLE3=Like A Howlin' Wolf
TTITLE4=My Heart Skips A Beat
TTITLE5=Fuzz 'n Fight
TTITLE6=I'll Come Ridin'
TTITLE7=My Love, Why
TTITLE8=Blue Blues Singer Remake
TTITLE9=Better Stop Cryin'
TTITLE10=Brown Eyes
TTITLE11=Old, But Happy
EXTD=
EXTT0=
EXTT1=
EXTT2=
EXTT3=
EXTT4=
EXTT5=
EXTT6=
EXTT7=
EXTT8=
EXTT9=
EXTT10=
EXTT11=
PLAYORDER=
